<svg height="100pt" viewBox="-6 0 512 512" width="100pt" xmlns="http://www.w3.org/2000/svg"><path d="m0 261.621094c0-138.15625 111.894531-250.175782 250.003906-250.378906 137.335938-.203126 249.828125 111.328124 250.75 248.664062.542969 81.148438-37.527344 153.421875-96.917968 199.550781-6.859376 5.328125-16.304688 5.863281-23.730469 1.355469-37.835938-22.96875-82.234375-36.199219-129.726563-36.199219-47.492187 0-91.890625 13.230469-129.726562 36.199219-7.429688 4.511719-16.882813 3.964844-23.746094-1.367188-58.960938-45.804687-96.90625-117.378906-96.90625-197.824218zm0 0" fill="#92c927"/><path d="m403.671875 15.328125v444.257813c-42.359375 32.847656-95.539063 52.414062-153.292969 52.414062s-110.933594-19.566406-153.292968-52.414062v-444.257813c0-8.464844 6.863281-15.328125 15.328124-15.328125h275.929688c8.464844 0 15.328125 6.863281 15.328125 15.328125zm0 0" fill="#b6c4cf"/><path d="m403.671875 15.328125v444.257813c-42.359375 32.847656-95.539063 52.414062-153.292969 52.414062-42.890625 0-83.257812-10.792969-118.546875-29.796875v-466.875c0-8.464844 6.863281-15.328125 15.328125-15.328125h241.183594c8.464844 0 15.328125 6.863281 15.328125 15.328125zm0 0" fill="#d9e7ec"/><path d="m265.707031 485.429688c0 8.464843-6.863281 15.328124-15.328125 15.328124s-15.328125-6.863281-15.328125-15.328124c0-8.464844 6.863281-15.328126 15.328125-15.328126s15.328125 6.863282 15.328125 15.328126zm21.460938-459.878907c0-5.644531-4.574219-10.222656-10.21875-10.222656h-53.140625c-5.644532 0-10.21875 4.578125-10.21875 10.222656 0 5.640625 4.574218 10.21875 10.21875 10.21875h53.140625c5.644531 0 10.21875-4.578125 10.21875-10.21875zm0 0" fill="#9facba"/><path d="m353.597656 459.878906h-206.4375c-8.464844 0-15.328125-6.863281-15.328125-15.328125v-378.125c0-8.464843 6.863281-15.328125 15.328125-15.328125h206.4375c8.464844 0 15.328125 6.863282 15.328125 15.328125v378.125c0 8.464844-6.863281 15.328125-15.328125 15.328125zm0 0" fill="#fcb30b"/><path d="m265.707031 383.234375c0 8.464844-6.863281 15.328125-15.328125 15.328125s-15.328125-6.863281-15.328125-15.328125 6.863281-15.332031 15.328125-15.332031 15.328125 6.867187 15.328125 15.332031zm-61.316406-15.332031c-8.464844 0-15.328125 6.867187-15.328125 15.332031s6.863281 15.328125 15.328125 15.328125 15.328125-6.863281 15.328125-15.328125-6.863281-15.332031-15.328125-15.332031zm91.976563 0c-8.464844 0-15.328126 6.867187-15.328126 15.332031s6.863282 15.328125 15.328126 15.328125c8.464843 0 15.328124-6.863281 15.328124-15.328125s-6.863281-15.332031-15.328124-15.332031zm0 0" fill="#f57e00"/><path d="m352.574219 214.609375c0 34.578125-17.171875 65.144531-43.449219 83.636719-4.835938 3.402344-26.992188 13.742187-33.164062 15.332031-8.175782 2.105469-16.75 3.226563-25.582032 3.226563-11.960937 0-23.441406-2.054688-34.109375-5.828126-5.964843-2.113281-28.199219-15.089843-33.160156-19.429687-21.40625-18.734375-34.925781-46.257813-34.925781-76.9375 0-56.4375 45.753906-102.195313 102.195312-102.195313s102.195313 45.757813 102.195313 102.195313zm0 0" fill="#fc6930"/><path d="m235.695312 133.617188v61.109374c0 11.007813-4.945312 20.855469-12.730468 27.457032-4.242188 3.601562-6.695313 8.882812-6.695313 14.449218v74.335938c-12.304687-4.355469-23.53125-11.003906-33.160156-19.429688v-54.90625c0-5.566406-2.449219-10.847656-6.691406-14.449218-7.785157-6.601563-12.730469-16.449219-12.730469-27.457032v-61.109374c0-3.921876 3.183594-7.105469 7.105469-7.105469h4.738281c3.925781 0 7.105469 3.183593 7.105469 7.105469v45.949218c0 2.09375 1.695312 3.789063 3.789062 3.789063s3.789063-1.695313 3.789063-3.789063v-45.949218c0-3.921876 3.183594-7.105469 7.105468-7.105469h4.738282c3.921875 0 7.105468 3.183593 7.105468 7.105469v45.949218c0 2.09375 1.695313 3.789063 3.789063 3.789063s3.789063-1.695313 3.789063-3.789063v-45.949218c0-3.921876 3.183593-7.105469 7.105468-7.105469h4.738282c3.925781 0 7.109374 3.179687 7.109374 7.105469zm63.476563-7.105469h-13.261719c-20.929687 0-37.898437 16.96875-37.898437 37.898437v33.160156c0 13.839844 7.425781 25.945313 18.507812 32.558594 5.796875 3.457032 9.441407 9.617188 9.441407 16.367188v67.082031c12.058593-3.109375 23.253906-8.367187 33.160156-15.335937v-51.746094c0-6.75 3.644531-12.910156 9.441406-16.367188 11.082031-6.613281 18.507812-18.71875 18.507812-32.558594v-33.160156c0-20.929687-16.96875-37.898437-37.898437-37.898437zm0 0" fill="#fff2b4"/><path d="m202.058594 236.632812v68.046876c-6.816406-3.664063-13.167969-8.082032-18.949219-13.140626v-54.90625c0-5.566406-2.449219-10.851562-6.691406-14.449218-7.785157-6.601563-12.730469-16.449219-12.730469-27.457032v-61.109374c0-3.925782 3.183594-7.105469 7.105469-7.105469h4.738281c3.925781 0 7.105469 3.179687 7.105469 7.105469v61.109374c0 11.007813 4.941406 20.855469 12.726562 27.457032 4.246094 3.597656 6.695313 8.882812 6.695313 14.449218zm82.777344-17.875c-11.082032-6.609374-18.507813-18.714843-18.507813-32.558593v-21.789063c0-20.082031 15.621094-36.503906 35.371094-37.804687-.835938-.058594-1.675781-.09375-2.527344-.09375h-13.261719c-20.929687 0-37.898437 16.96875-37.898437 37.898437v33.160156c0 13.839844 7.425781 25.945313 18.507812 32.558594 5.796875 3.457032 9.441407 9.617188 9.441407 16.367188v67.082031c6.367187-1.640625 12.492187-3.886719 18.316406-6.660156v-71.792969c0-6.75-3.644532-12.910156-9.441406-16.367188zm0 0" fill="#ffdea4"/></svg>